<?xml version="1.0" encoding="utf-8"?>
<!-- Generator: Adobe Illustrator 16.0.0, SVG Export Plug-In . SVG Version: 6.00 Build 0)  -->
<!DOCTYPE svg PUBLIC "-//W3C//DTD SVG 1.1//EN" "http://www.w3.org/Graphics/SVG/1.1/DTD/svg11.dtd">
<svg version="1.1" id="Layer_1" xmlns="http://www.w3.org/2000/svg" xmlns:xlink="http://www.w3.org/1999/xlink" x="0px" y="0px"
	 width="102px" height="102px" viewBox="0 0 102 102" enable-background="new 0 0 102 102" xml:space="preserve">
<path fill="#161616" d="M85.803,67.619c-9.939,7.725-15.42,11.988-21.459,9.398c-6.184-2.712-6.184-9.477-6.184-21.732v-0.011H5.286
	C2.92,55.274,1,53.354,1,50.988s1.92-4.286,4.286-4.286H58.16c0-12.256,0-19.021,6.15-21.71c6.072-2.612,11.547,1.651,21.481,9.37
	l5.508,4.297c6.045,4.672,9.7,7.501,9.7,12.34c0,4.833-3.65,7.668-9.705,12.346L85.803,67.619z M67.805,69.299
	c1.306,0.553,7.361-4.157,12.696-8.304l5.492-4.281c0,0,0.011,0,0.017-0.005c2.751-2.127,6.178-4.783,6.435-5.721v-0.006
	c-0.257-0.91-3.684-3.555-6.435-5.682l-5.515-4.292c-5.329-4.151-11.379-8.851-12.729-8.281c-1.027,1.06-1.033,7.925-1.033,13.991
	v8.572C66.732,61.347,66.728,68.222,67.805,69.299z"/>
</svg>
