<?xml version="1.0" encoding="utf-8"?>
<!-- Generator: Adobe Illustrator 16.0.0, SVG Export Plug-In . SVG Version: 6.00 Build 0)  -->
<!DOCTYPE svg PUBLIC "-//W3C//DTD SVG 1.1//EN" "http://www.w3.org/Graphics/SVG/1.1/DTD/svg11.dtd">
<svg version="1.1" id="Layer_1" xmlns="http://www.w3.org/2000/svg" xmlns:xlink="http://www.w3.org/1999/xlink" x="0px" y="0px"
	 width="102px" height="102px" viewBox="0 0 102 102" enable-background="new 0 0 102 102" xml:space="preserve">
<path fill="#161616" d="M17.197,34.38c9.939-7.725,15.42-11.988,21.459-9.398c6.184,2.712,6.184,9.477,6.184,21.732v0.011h52.874
	c2.366,0,4.286,1.92,4.286,4.286s-1.92,4.286-4.286,4.286H44.84c0,12.256,0,19.021-6.15,21.71
	c-6.072,2.612-11.547-1.651-21.481-9.37L11.7,63.34C5.655,58.668,2,55.839,2,51c0-4.833,3.65-7.668,9.705-12.346L17.197,34.38z
	 M35.195,32.7c-1.306-0.553-7.361,4.157-12.696,8.304l-5.492,4.281c0,0-0.011,0-0.017,0.005c-2.751,2.127-6.178,4.783-6.435,5.721
	v0.006c0.257,0.91,3.684,3.555,6.435,5.682l5.515,4.292c5.329,4.151,11.379,8.851,12.729,8.281c1.027-1.06,1.033-7.925,1.033-13.991
	v-8.572C36.268,40.652,36.272,33.777,35.195,32.7z"/>
</svg>
